<svg xmlns="http://www.w3.org/2000/svg" version="1.1" xmlns:xlink="http://www.w3.org/1999/xlink" xmlns:svgjs="http://svgjs.dev/svgjs" width="1000" height="575" viewBox="0 0 1000 575"><g transform="matrix(1,0,0,1,-0.6060475466827597,0.5450998962701874)"><svg viewBox="0 0 396 228" data-background-color="#ffffff" preserveAspectRatio="xMidYMid meet" height="575" width="1000" xmlns="http://www.w3.org/2000/svg" xmlns:xlink="http://www.w3.org/1999/xlink"><g id="tight-bounds" transform="matrix(1,0,0,1,0.239994828486374,-0.2161439588688836)"><svg viewBox="0 0 395.52 228.43228791773777" height="228.43228791773777" width="395.52"><g><svg viewBox="0 0 395.52 228.43228791773777" height="228.43228791773777" width="395.52"><g><svg viewBox="0 0 395.52 228.43228791773777" height="228.43228791773777" width="395.52"><g><svg viewBox="0 0 395.52 228.43228791773777" height="228.43228791773777" width="395.52"><g><svg viewBox="0 0 395.52 228.43228791773777" height="228.43228791773777" width="395.52"><g transform="matrix(1,0,0,1,0,0)"><svg width="395.52" viewBox="3.25 -33.70000076293945 58.349998474121094 33.70000076293945" height="228.43228791773777" data-palette-color="#ff0000"><path d="M20.3-16.85L32.25 0 22.6 0 11.3-16.75 22.2-33.7 31.35-33.7 20.3-16.85ZM10.95-33.7L10.95 0 3.25 0 3.25-33.7 10.95-33.7ZM50.9 0L50.9 0 36.35 0 36.35-33.7 49.45-33.7Q55-33.7 57.9-31.08 60.8-28.45 60.8-24.4L60.8-24.4Q60.8-21.75 59.4-19.75 58-17.75 55.75-17.05L55.75-17.05Q61.6-15.3 61.6-9.15L61.6-9.15Q61.6-5.15 58.72-2.58 55.85 0 50.9 0ZM48.15-27.55L48.15-27.55 44.05-27.55 44.05-20 46.9-20Q49.9-20 51.42-21.1 52.95-22.2 52.95-24L52.95-24Q52.95-27.55 48.15-27.55ZM48.15-13.95L48.15-13.95 44.05-13.95 44.05-6.15 48.1-6.15Q53.8-6.15 53.8-10.05 53.8-13.95 48.15-13.95Z" opacity="1" transform="matrix(1,0,0,1,0,0)" fill="#ff0000" class="undefined-text-0" data-fill-palette-color="primary" id="text-0"></path></svg></g></svg></g></svg></g></svg></g><g></g></svg></g><defs></defs></svg><rect width="395.52" height="228.43228791773777" fill="none" stroke="none" visibility="hidden"></rect></g></svg></g></svg>